<svg xmlns="http://www.w3.org/2000/svg" xml:space="preserve" width="2000" height="109" data-id="lg_vQUUZv1L5AutkNDzwR" data-version="1" viewBox="0 0 2000 109"><g data-padding="20"><g transform="translate(10 1.943)scale(.96435)"><rect width="201.727" height="201.727" x="1059.193" y="-740.678" fill="#0d6efd" rx="13" ry="13" transform="matrix(.54 0 0 .54 174.3 400)"/><rect width="434.726" height="51.98" x="409.068" y="-371.49" fill="none" rx="0" ry="0" transform="translate(463.14 386.37)"/><path fill="#0d6efd" d="M878.48 54.82q-.92 0-1.54-.62-.63-.62-.63-1.54v-31.6q0-.97.63-1.56.62-.6 1.54-.6.96 0 1.56.6.6.59.6 1.56v31.6q0 .92-.6 1.54t-1.56.62m13.46 0q-.92 0-1.51-.62-.6-.62-.6-1.54v-31.6q0-.97.6-1.56.59-.6 1.51-.6 1.02 0 1.71.78l20.79 27.55V21.06q0-.97.62-1.56.62-.6 1.54-.6t1.52.6q.6.59.6 1.56v31.6q0 .92-.6 1.54t-1.52.62q-.46 0-.92-.18t-.74-.55l-20.83-27.56v26.13q0 .92-.6 1.54t-1.57.62m48.17 0q-1.38 0-1.98-1.38l-13.57-31.28q-.6-1.42-.12-2.34.49-.92 1.82-.92 1.43 0 1.98 1.33l12.14 29.12h-.69l12.28-29.12q.33-.73.79-1.03t1.24-.3q1.24 0 1.72.92.49.92-.02 2.02l-13.66 31.6q-.32.69-.81 1.04-.48.34-1.12.34m44.62 0h-21.12q-.92 0-1.54-.62t-.62-1.54v-31.6q0-.97.62-1.56.62-.6 1.54-.6h21.12q.92 0 1.51.57.6.58.6 1.5 0 .83-.6 1.4-.59.58-1.51.58h-18.96v11.77h13.67q.96 0 1.54.58.57.57.57 1.45 0 .87-.57 1.45-.58.57-1.54.57h-13.67v12.01h18.96q.92 0 1.51.57.6.58.6 1.4 0 .92-.6 1.5-.59.57-1.51.57m20.05.46q-2.94 0-5.54-.89-2.6-.9-4.53-2.51t-2.85-3.77q-.46-.88-.03-1.61.44-.74 1.45-.97.78-.18 1.52.21t1.1 1.17q.6 1.24 1.89 2.23t3.11 1.59q1.81.6 3.88.6 2.3 0 4.17-.74 1.86-.73 2.99-2.14 1.12-1.4 1.12-3.42 0-2.58-1.98-4.56-1.97-1.98-6.34-2.48-5.57-.6-8.74-3.36-3.18-2.76-3.18-6.81 0-2.94 1.61-5.03 1.61-2.1 4.42-3.2 2.8-1.11 6.35-1.11 2.66 0 4.76.79 2.09.78 3.63 2.14 1.54 1.35 2.65 3.1.55.92.43 1.73-.11.8-.85 1.26-.83.46-1.72.18-.9-.27-1.36-1.05-.69-1.25-1.75-2.17t-2.5-1.47q-1.45-.55-3.43-.55-3.5-.05-5.75 1.36-2.26 1.4-2.26 4.21 0 1.47.76 2.73.76 1.27 2.67 2.21t5.36 1.36q5.57.64 8.51 3.38t2.94 7.2q0 2.57-.98 4.51-.99 1.93-2.74 3.24t-4.03 1.98q-2.27.66-4.76.66m30.45-.46q-.87 0-1.51-.62-.65-.62-.65-1.54V18.9h4.33v33.76q0 .92-.6 1.54t-1.57.62m12.47-31.97h-24.93q-.88 0-1.43-.55t-.55-1.42q0-.88.55-1.43t1.43-.55h24.93q.92 0 1.47.55t.55 1.43q0 .87-.55 1.42t-1.47.55m23.92 32.43q-4.05 0-7.41-1.35-3.35-1.36-5.77-3.84-2.41-2.49-3.77-5.85-1.36-3.35-1.36-7.4 0-4 1.36-7.36t3.77-5.84q2.42-2.49 5.77-3.84 3.36-1.36 7.41-1.36 4 0 7.36 1.36 3.36 1.35 5.8 3.84 2.43 2.48 3.79 5.84t1.36 7.36q0 4.05-1.36 7.4-1.36 3.36-3.79 5.85-2.44 2.48-5.8 3.84-3.36 1.35-7.36 1.35m0-3.95q3.08 0 5.66-1.11 2.57-1.1 4.48-3.05 1.91-1.96 2.95-4.6 1.03-2.65 1.03-5.73t-1.03-5.71q-1.04-2.62-2.95-4.6-1.91-1.97-4.48-3.05-2.58-1.09-5.66-1.09t-5.66 1.09q-2.57 1.08-4.46 3.05-1.89 1.98-2.94 4.6-1.06 2.63-1.06 5.71t1.06 5.73q1.05 2.64 2.94 4.6 1.89 1.95 4.46 3.05 2.58 1.11 5.66 1.11m27.92 3.49q-.92 0-1.54-.62t-.62-1.54v-31.6q0-.97.62-1.56.62-.6 1.54-.6h8.42q3.4 0 6.05 1.42 2.64 1.43 4.14 3.96 1.49 2.53 1.49 5.84 0 3.13-1.49 5.57-1.5 2.44-4.14 3.82-2.65 1.38-6.05 1.38h-6.26v11.77q0 .92-.59 1.54-.6.62-1.57.62m19.14 0q-.6 0-1.06-.25t-.83-.8l-8.46-13.62 4.23-1.2 7.82 12.56q.78 1.24.23 2.28-.55 1.03-1.93 1.03m-16.98-31.87v13.89h6.26q2.21 0 3.89-.85t2.64-2.39q.97-1.55.97-3.48 0-2.11-.97-3.75-.96-1.63-2.64-2.53-1.68-.89-3.89-.89Zm23.65 6.29q-.69 0-1.2-.48-.5-.49-.5-1.18l-.46-6.53q0-.92.64-1.52t1.47-.6q.88 0 1.5.6t.62 1.52l-.42 6.53q0 .69-.48 1.18-.48.48-1.17.48m19.32 26.04q-2.95 0-5.54-.89-2.6-.9-4.54-2.51-1.93-1.61-2.85-3.77-.46-.88-.02-1.61.44-.74 1.45-.97.78-.18 1.52.21.73.39 1.1 1.17.6 1.24 1.89 2.23 1.28.99 3.1 1.59t3.89.6q2.3 0 4.16-.74 1.86-.73 2.99-2.14 1.13-1.4 1.13-3.42 0-2.58-1.98-4.56t-6.35-2.48q-5.56-.6-8.74-3.36-3.17-2.76-3.17-6.81 0-2.94 1.61-5.03 1.61-2.1 4.41-3.2 2.81-1.11 6.35-1.11 2.67 0 4.76.79 2.1.78 3.64 2.14 1.54 1.35 2.64 3.1.55.92.44 1.73-.12.8-.85 1.26-.83.46-1.73.18-.89-.27-1.35-1.05-.69-1.25-1.75-2.17t-2.51-1.47-3.43-.55q-3.49-.05-5.75 1.36-2.25 1.4-2.25 4.21 0 1.47.76 2.73.76 1.27 2.67 2.21t5.36 1.36q5.56.64 8.51 3.38 2.94 2.74 2.94 7.2 0 2.57-.99 4.51-.99 1.93-2.74 3.24-1.74 1.31-4.02 1.98-2.28.66-4.76.66m56.67-.46h-21.11q-.92 0-1.54-.62-.63-.62-.63-1.54v-31.6q0-.97.63-1.56.62-.6 1.54-.6h21.11q.92 0 1.52.57.6.58.6 1.5 0 .83-.6 1.4-.6.58-1.52.58h-18.95v11.77h13.66q.97 0 1.54.58.58.57.58 1.45 0 .87-.58 1.45-.57.57-1.54.57h-13.66v12.01h18.95q.92 0 1.52.57.6.58.6 1.4 0 .92-.6 1.5-.6.57-1.52.57m19.27 0h-8.32q-.92 0-1.54-.62t-.62-1.54v-31.6q0-.97.62-1.56.62-.6 1.54-.6h8.32q3.96 0 7.2 1.31 3.25 1.31 5.64 3.73 2.39 2.41 3.7 5.68 1.31 3.26 1.31 7.22 0 3.95-1.31 7.24t-3.7 5.71q-2.39 2.41-5.64 3.72-3.24 1.31-7.2 1.31m-6.16-32.06v28.2h6.16q4.01 0 7.07-1.82 3.05-1.81 4.83-5.01 1.77-3.2 1.77-7.29 0-4.14-1.77-7.32-1.78-3.17-4.83-4.96-3.06-1.8-7.07-1.8Zm47.57 32.52q-3.72 0-6.96-1.4-3.25-1.4-5.66-3.93-2.42-2.53-3.8-5.89t-1.38-7.22q0-3.82 1.36-7.15 1.36-3.34 3.79-5.87 2.44-2.53 5.66-3.96 3.22-1.42 6.99-1.42 3.45 0 6.08.94 2.62.94 5.19 3.06.37.28.53.62.16.35.14.69-.02.35-.16.67-.05.69-.57 1.13-.53.43-1.27.43t-1.38-.5q-1.75-1.52-3.68-2.3-1.93-.79-4.88-.79-2.8 0-5.26 1.15t-4.35 3.13-2.94 4.6q-1.06 2.62-1.06 5.57 0 3.03 1.06 5.63 1.05 2.6 2.94 4.6t4.35 3.11q2.46 1.1 5.26 1.1 2.44 0 4.6-.8 2.17-.81 4.1-2.28.73-.55 1.47-.48t1.24.6q.51.52.51 1.44 0 .42-.12.81-.11.39-.53.71-2.39 2.12-5.26 3.06-2.88.94-6.01.94m11.92-16.69v11.17l-4.14-.87v-8.6h-6.67q-.92 0-1.54-.55-.62-.56-.62-1.38 0-.83.62-1.36t1.54-.53h8.69q.97 0 1.54.6.58.6.58 1.52m30.85 16.23h-21.11q-.92 0-1.54-.62t-.62-1.54v-31.6q0-.97.62-1.56.62-.6 1.54-.6h21.11q.92 0 1.52.57.6.58.6 1.5 0 .83-.6 1.4-.6.58-1.52.58h-18.95v11.77h13.66q.97 0 1.55.58.57.57.57 1.45 0 .87-.57 1.45-.58.57-1.55.57h-13.66v12.01h18.95q.92 0 1.52.57.6.58.6 1.4 0 .92-.6 1.5-.6.57-1.52.57"/><rect width="288.833" height="28.25" x="482.015" y="-359.625" fill="none" rx="0" ry="0" transform="translate(390.19 428.7)"/><path fill="#0d6efd" d="M880.68 90.56q-.63 0-.9-.63l-7.43-17.37q-.27-.7-.03-1.11.23-.42.83-.42.63 0 .9.63l6.9 16.5h-.55l6.88-16.45q.15-.38.37-.53.23-.15.6-.15.58 0 .78.44t-.03.99l-7.45 17.47q-.15.35-.37.49-.23.14-.5.14m12.55-.01q-.45 0-.71-.26-.27-.27-.27-.72V77.85q0-.45.27-.71.26-.27.71-.27.42 0 .69.27.26.26.26.71v11.72q0 .45-.26.72-.27.26-.69.26m-.03-16.28q-.55 0-.95-.4t-.4-.97q0-.63.42-.99.41-.36.96-.36.52 0 .94.36.41.36.41.99 0 .57-.4.97t-.98.4m10.65 16.4q-1.47 0-2.92-.5t-2.35-1.5q-.28-.3-.23-.67.05-.38.38-.65.35-.25.72-.2.38.05.63.32.6.7 1.59 1.08.98.37 2.18.37 1.85 0 2.68-.63.82-.64.85-1.54 0-.9-.85-1.49t-2.8-.91q-2.53-.4-3.7-1.4-1.18-1-1.18-2.38 0-1.27.68-2.12.67-.85 1.8-1.28 1.12-.42 2.47-.42 1.68 0 2.89.57 1.21.58 1.96 1.55.25.33.2.68t-.4.57q-.3.18-.68.12-.39-.07-.67-.37-.62-.72-1.45-1.06-.82-.34-1.9-.34-1.37 0-2.2.57-.82.56-.82 1.41 0 .57.31 1 .31.42 1.08.75.76.32 2.13.55 1.88.3 2.97.89 1.08.58 1.55 1.37.46.79.46 1.71 0 1.18-.69 2.07-.69.88-1.9 1.38t-2.79.5m10.07-.12q-.45 0-.71-.26-.27-.27-.27-.72V77.85q0-.45.27-.71.26-.27.71-.27.42 0 .69.27.26.26.26.71v11.72q0 .45-.26.72-.27.26-.69.26m-.03-16.28q-.55 0-.95-.4t-.4-.97q0-.63.42-.99.41-.36.96-.36.52 0 .94.36.41.36.41.99 0 .57-.4.97t-.98.4M926 90.67q-2 0-3.57-.9-1.58-.9-2.48-2.47-.9-1.58-.9-3.58 0-2.02.9-3.6.9-1.57 2.48-2.47 1.57-.9 3.57-.9t3.57.9q1.56.9 2.46 2.47.9 1.58.92 3.6 0 2-.91 3.58-.91 1.57-2.47 2.47-1.57.9-3.57.9m0-1.75q1.45 0 2.6-.67 1.15-.68 1.8-1.85.65-1.18.65-2.68t-.65-2.68q-.65-1.19-1.8-1.87-1.15-.67-2.6-.67t-2.6.67q-1.15.68-1.81 1.87-.66 1.18-.66 2.68t.66 2.68q.66 1.17 1.81 1.85 1.15.67 2.6.67m22.43 1.64q-.43 0-.7-.28-.28-.27-.28-.67v-6.5q0-1.55-.58-2.55-.59-1-1.6-1.5-1.02-.5-2.29-.5-1.23 0-2.21.47-.99.48-1.57 1.3-.57.83-.57 1.88h-1.38q.05-1.58.85-2.81.8-1.24 2.13-1.95 1.32-.72 2.95-.72 1.77 0 3.17.74t2.22 2.16q.81 1.43.81 3.48v6.5q0 .4-.28.67-.27.28-.67.28m-10.75 0q-.45 0-.71-.26-.27-.27-.27-.69V77.86q0-.45.27-.71.26-.27.71-.27.42 0 .69.27.26.26.26.71v11.75q0 .42-.26.69-.27.26-.69.26m21.97.11q-1.92 0-3.45-.91-1.52-.91-2.41-2.49-.89-1.57-.89-3.55 0-2 .92-3.57.91-1.58 2.48-2.49 1.58-.91 3.55-.91 1.98 0 3.54.91t2.48 2.49q.91 1.57.93 3.57l-.77.6q0 1.8-.84 3.24t-2.27 2.28q-1.44.83-3.27.83m.2-1.75q1.45 0 2.59-.67 1.14-.68 1.8-1.86.66-1.19.66-2.67 0-1.5-.66-2.67-.66-1.18-1.8-1.86-1.14-.69-2.59-.69-1.42 0-2.57.69-1.15.68-1.83 1.86-.67 1.17-.67 2.67 0 1.48.67 2.67.68 1.18 1.83 1.86 1.15.67 2.57.67m5.98 1.63q-.43 0-.7-.26-.28-.27-.28-.69v-4.28l.48-1.97 1.47.37v5.88q0 .42-.27.69-.28.26-.7.26m6.62-8.42h-1.1q.08-1.55.82-2.77.73-1.23 1.92-1.93t2.64-.7q1.15 0 1.77.33.63.32.48.95-.1.37-.34.5-.24.12-.57.1-.34-.03-.77-.05-1.4-.13-2.48.29-1.09.41-1.73 1.26t-.64 2.02m-.95 8.43q-.45 0-.7-.25t-.25-.7V77.83q0-.45.25-.7t.7-.25.7.25.25.7v11.78q0 .45-.25.7t-.7.25m12.85 5.95q-.2 0-.45-.1-.85-.38-.47-1.2l8.07-17.8q.38-.8 1.2-.45.85.35.48 1.17l-8.1 17.8q-.25.58-.73.58m2.78-6.38q-.38.18-.7.07-.33-.12-.53-.49l-5.57-11.55q-.18-.38-.05-.7.12-.33.5-.5.37-.18.7-.06.32.11.5.48l5.47 11.55q.2.38.13.7-.08.33-.45.5m36.17.43h-11.72q-.43 0-.7-.28-.28-.27-.28-.7V72.01q0-.43.28-.7.27-.28.7-.28h11.72q.4 0 .69.27.29.26.29.68 0 .38-.29.65-.29.28-.69.28h-10.75v6.9h7.83q.42 0 .7.27.27.28.27.68t-.27.67q-.28.28-.7.28h-7.83v6.97h10.75q.4 0 .69.28.29.27.29.65 0 .42-.29.69-.29.26-.69.26m16.08 0q-.43 0-.7-.28-.28-.27-.28-.67v-6.5q0-1.55-.58-2.55-.59-1-1.6-1.5-1.02-.5-2.29-.5-1.23 0-2.21.47-.99.48-1.57 1.3-.57.83-.57 1.88h-1.38q.05-1.58.85-2.81.8-1.24 2.13-1.95 1.32-.72 2.95-.72 1.77 0 3.17.74t2.22 2.16q.81 1.43.81 3.48v6.5q0 .4-.28.67-.27.28-.67.28m-10.75 0q-.45 0-.71-.26-.27-.27-.27-.69V77.86q0-.45.27-.71.26-.27.71-.27.42 0 .69.27.26.26.26.71v11.75q0 .42-.26.69-.27.26-.69.26m21.81 0h-.52q-1.33 0-2.36-.63-1.04-.62-1.64-1.71t-.6-2.49V73.51q0-.43.26-.7.26-.28.69-.28.42 0 .7.28.27.27.27.7v12.22q0 1.28.75 2.09t1.93.81h.67q.4 0 .65.28.25.27.25.7 0 .42-.3.69-.3.26-.75.26m-.37-11.5h-6.38q-.37 0-.62-.24t-.25-.59q0-.37.25-.61t.62-.24h6.38q.37 0 .62.24t.25.61q0 .35-.25.59t-.62.24m10.76 11.61q-2.03 0-3.59-.88-1.56-.89-2.45-2.47-.89-1.57-.89-3.6 0-2.05.84-3.61t2.31-2.46q1.48-.9 3.4-.9 1.9 0 3.32.86 1.41.86 2.18 2.39.78 1.52.78 3.47 0 .4-.25.64t-.65.24h-10.63v-1.6h10.83l-1.08.77q.03-1.45-.52-2.6t-1.56-1.8q-1.02-.65-2.42-.65-1.42 0-2.5.68-1.07.67-1.66 1.86t-.59 2.71q0 1.53.67 2.7.66 1.18 1.81 1.85 1.15.68 2.65.68.9 0 1.81-.31.91-.32 1.46-.79.28-.23.63-.24t.6.19q.32.3.34.65.01.35-.29.6-.83.7-2.1 1.16-1.28.46-2.45.46m11.05-8.54h-1.1q.07-1.55.81-2.77.74-1.23 1.93-1.93 1.18-.7 2.63-.7 1.15 0 1.78.33.62.32.47.95-.1.37-.33.5-.24.12-.58.1-.34-.03-.76-.05-1.4-.13-2.49.29-1.09.41-1.72 1.26-.64.85-.64 2.02m-.95 8.43q-.45 0-.7-.25t-.25-.7V77.83q0-.45.25-.7t.7-.25.7.25.25.7v11.78q0 .45-.25.7t-.7.25m11.47 5.85q-.45 0-.71-.26-.26-.27-.26-.72v-11.8q.02-1.95.94-3.51.91-1.56 2.47-2.46t3.51-.9q2 0 3.58.91 1.57.91 2.49 2.49.91 1.57.91 3.57 0 1.98-.89 3.55-.89 1.58-2.41 2.49-1.53.91-3.45.91-1.68 0-3.04-.71t-2.19-1.89v7.35q0 .45-.26.72-.26.26-.69.26m5.95-7.48q1.45 0 2.6-.67 1.15-.68 1.82-1.86.66-1.19.66-2.67 0-1.5-.66-2.67-.67-1.18-1.82-1.86-1.15-.69-2.6-.69-1.42 0-2.57.69-1.15.68-1.8 1.86-.65 1.17-.65 2.67 0 1.48.65 2.67.65 1.18 1.8 1.86 1.15.67 2.57.67m12.65-6.8h-1.1q.08-1.55.82-2.77.73-1.23 1.92-1.93t2.64-.7q1.15 0 1.77.33.63.32.48.95-.1.37-.34.5-.24.12-.57.1-.34-.03-.77-.05-1.4-.13-2.48.29-1.09.41-1.73 1.26t-.64 2.02m-.95 8.43q-.45 0-.7-.25t-.25-.7V77.83q0-.45.25-.7t.7-.25.7.25.25.7v11.78q0 .45-.25.7t-.7.25m11.87-.01q-.45 0-.71-.26-.27-.27-.27-.72V77.85q0-.45.27-.71.26-.27.71-.27.42 0 .69.27.26.26.26.71v11.72q0 .45-.26.72-.27.26-.69.26m-.03-16.28q-.55 0-.95-.4t-.4-.97q0-.63.42-.99.41-.36.96-.36.52 0 .94.36.41.36.41.99 0 .57-.4.97t-.98.4m10.66 16.4q-1.47 0-2.92-.5t-2.35-1.5q-.28-.3-.23-.67.05-.38.38-.65.35-.25.72-.2.38.05.63.32.6.7 1.59 1.08.98.37 2.18.37 1.85 0 2.68-.63.82-.64.85-1.54 0-.9-.85-1.49t-2.8-.91q-2.53-.4-3.7-1.4-1.18-1-1.18-2.38 0-1.27.68-2.12.67-.85 1.8-1.28 1.12-.42 2.47-.42 1.68 0 2.89.57 1.21.58 1.96 1.55.25.33.2.68t-.4.57q-.3.18-.68.12-.39-.07-.67-.37-.62-.72-1.45-1.06-.82-.34-1.9-.34-1.37 0-2.2.57-.82.56-.82 1.41 0 .57.31 1 .31.42 1.08.75.76.32 2.13.55 1.88.3 2.97.89 1.08.58 1.55 1.37.46.79.46 1.71 0 1.18-.69 2.07-.69.88-1.9 1.38t-2.79.5m14.9 0q-2.02 0-3.58-.88-1.57-.89-2.45-2.47-.89-1.57-.89-3.6 0-2.05.84-3.61.83-1.56 2.31-2.46 1.47-.9 3.4-.9 1.9 0 3.31.86t2.19 2.39q.77 1.52.77 3.47 0 .4-.25.64t-.65.24h-10.62v-1.6h10.82l-1.07.77q.02-1.45-.53-2.6t-1.56-1.8-2.41-.65q-1.43 0-2.5.68-1.08.67-1.66 1.86-.59 1.19-.59 2.71 0 1.53.66 2.7.66 1.18 1.81 1.85 1.15.68 2.65.68.9 0 1.82-.31.91-.32 1.46-.79.27-.23.62-.24t.6.19q.33.3.34.65t-.29.6q-.82.7-2.1 1.16-1.27.46-2.45.46m13.93 0q-1.48 0-2.93-.5t-2.35-1.5q-.27-.3-.22-.67.05-.38.37-.65.35-.25.73-.2.37.05.62.32.6.7 1.59 1.08.99.37 2.19.37 1.85 0 2.67-.63.83-.64.85-1.54 0-.9-.85-1.49t-2.8-.91q-2.52-.4-3.7-1.4-1.17-1-1.17-2.38 0-1.27.67-2.12.68-.85 1.8-1.28 1.13-.42 2.48-.42 1.67 0 2.89.57 1.21.58 1.96 1.55.25.33.2.68t-.4.57q-.3.18-.69.12-.39-.07-.66-.37-.63-.72-1.45-1.06-.83-.34-1.9-.34-1.38 0-2.2.57-.83.56-.83 1.41 0 .57.32 1 .31.42 1.07.75.76.32 2.14.55 1.87.3 2.96.89 1.09.58 1.55 1.37t.46 1.71q0 1.18-.68 2.07-.69.88-1.9 1.38-1.22.5-2.79.5"/><rect width="57.522" height="64.373" x="658.498" y="166.462" fill="none" rx="0" ry="0" transform="rotate(-45 568.86 -14.624)"/><path fill="#fff" d="M801.265 79.19q-.806.806-1.895.806t-1.895-.806l-27.676-27.676q-.842-.84-.82-1.91t.827-1.873q.84-.84 1.888-.84t1.888.84l27.676 27.676q.806.806.827 1.874t-.82 1.91M831.6 48.855 813.117 67.34q-.806.806-1.895.806t-1.895-.806L781.65 39.663q-.842-.842-.82-1.91t.827-1.873l18.484-18.484q.806-.806 1.83-.827t1.832.784q.722.722.707 1.754-.02 1.025-.827 1.831l-16.596 16.596 10.31 10.31 11.964-11.964q.849-.849 1.853-.849 1.01.007 1.775.77t.763 1.77q.007 1.01-.841 1.86l-11.964 11.963 10.507 10.507 16.596-16.596q.806-.806 1.839-.82 1.025-.02 1.746.7.806.806.785 1.832-.014 1.032-.82 1.838"/></g><path fill="transparent" stroke="transparent" d="M719.5 0h561v109h-561z"/></g></svg>